<svg xmlns="http://www.w3.org/2000/svg" width="500" height="500" viewBox="0 0 500 500" fill="none">
  <defs>
    <filter id="main-shadow-xlarge" x="-10%" y="-10%" width="120%" height="120%">
      <feDropShadow dx="0" dy="20" stdDeviation="30" flood-color="#fed7aa" flood-opacity="0.8"/>
    </filter>
    
    <filter id="badge-shadow-xlarge" x="-20%" y="-20%" width="140%" height="140%">
      <feDropShadow dx="0" dy="10" stdDeviation="15" flood-color="#000000" flood-opacity="0.1"/>
    </filter>
  </defs>

  <rect width="500" height="500" fill="#f97316" filter="url(#main-shadow-xlarge)" />

  <g transform="translate(110, 110)">
    <svg width="280" height="280" viewBox="0 0 24 24" fill="none" stroke="#ffffff" stroke-width="2" stroke-linecap="round" stroke-linejoin="round">
      <path d="M17 21a1 1 0 0 0 1-1v-5.35c0-.457.316-.844.727-1.041a4 4 0 0 0-2.134-7.589c-.26-.748-.482-1.282-1.393-2.012a4.43 4.43 0 0 0-6.4 0c-.911.73-1.133 1.264-1.393 2.012a4 4 0 0 0-2.134 7.589c.411.197.727.584.727 1.041V20a1 1 0 0 0 1 1Z"/>
      <path d="M6 17h12"/>
    </svg>
  </g>

  <circle cx="360" cy="338" r="72" fill="#ffffff" stroke="#f97316" stroke-width="12" filter="url(#badge-shadow-xlarge)" />

  <g transform="translate(319, 297)">
    <svg width="82" height="82" viewBox="0 0 24 24" fill="none" stroke="#f97316" stroke-width="2.5" stroke-linecap="round" stroke-linejoin="round">
      <path d="M2 10v3"/>
      <path d="M6 6v11"/>
      <path d="M10 3v18"/>
      <path d="M14 8v7"/>
      <path d="M18 5v13"/>
      <path d="M22 10v3"/>
    </svg>
  </g>
</svg>